<?xml version="1.0" encoding="UTF-8"?>
<svg xmlns="http://www.w3.org/2000/svg" xmlns:xlink="http://www.w3.org/1999/xlink" viewBox="0 0 100 100">
  <circle cx="50" cy="50" r="46" stroke="black" stroke-width="8" fill="hsl(50, 70%, 70%)" />
  <g id="svgGroup" fill="#000" fill-rule="evenodd" transform="translate(31,21)">
    <path
      d="M 14.56 31.52 L 13.28 31.52 A 3.221 3.221 0 0 1 10.951 30.551 A 4.124 4.124 0 0 1 10.92 30.52 A 3.422 3.422 0 0 1 10.155 29.394 A 3.229 3.229 0 0 1 9.92 28.16 A 3.221 3.221 0 0 1 10.889 25.832 A 4.124 4.124 0 0 1 10.92 25.8 A 3.422 3.422 0 0 1 12.047 25.035 A 3.229 3.229 0 0 1 13.28 24.8 L 13.76 24.8 Q 18.737 24.8 22.295 23.833 A 16.185 16.185 0 0 0 25.92 22.4 A 8.97 8.97 0 0 0 28.467 20.355 Q 30.018 18.51 30.212 15.886 A 10.389 10.389 0 0 0 30.24 15.12 Q 30.24 11.36 27.12 9.08 A 9.948 9.948 0 0 0 24.353 7.702 Q 21.797 6.857 18.102 6.804 A 34.848 34.848 0 0 0 17.6 6.8 Q 13.84 6.8 10.76 7.56 A 35.769 35.769 0 0 0 7.485 8.529 A 28.401 28.401 0 0 0 5.2 9.44 Q 4.88 9.52 4.56 9.64 A 1.693 1.693 0 0 1 4.274 9.718 Q 4.131 9.745 3.966 9.755 A 3.432 3.432 0 0 1 3.76 9.76 Q 2.56 9.76 1.68 8.92 Q 0.8 8.08 0.8 6.8 A 3.308 3.308 0 0 1 1.011 5.59 Q 1.332 4.767 2.141 4.236 A 3.882 3.882 0 0 1 2.4 4.08 A 31.368 31.368 0 0 1 5.08 2.796 Q 6.482 2.199 8.099 1.645 A 56.231 56.231 0 0 1 9.2 1.28 Q 13.2 0 18.24 0 A 36.858 36.858 0 0 1 23.622 0.368 Q 29.083 1.175 32.52 3.76 A 12.173 12.173 0 0 1 37.439 12.704 A 17.411 17.411 0 0 1 37.52 14.4 A 17.876 17.876 0 0 1 37.294 17.324 Q 37.03 18.917 36.457 20.233 A 10.055 10.055 0 0 1 36.04 21.08 Q 34.56 23.76 32.36 25.32 Q 30.16 26.88 27.84 27.76 A 18.115 18.115 0 0 1 29.543 28.261 Q 30.37 28.546 31.264 28.929 A 30.102 30.102 0 0 1 31.52 29.04 A 13.886 13.886 0 0 1 34.253 30.654 A 16.852 16.852 0 0 1 35.36 31.56 A 11.612 11.612 0 0 1 37.569 34.25 A 14.469 14.469 0 0 1 38.36 35.76 Q 39.52 38.32 39.52 42 A 15.638 15.638 0 0 1 39.031 46.006 A 11.893 11.893 0 0 1 36.76 50.52 A 16.098 16.098 0 0 1 31.801 54.561 A 20.511 20.511 0 0 1 29.32 55.68 Q 24.64 57.44 18.8 57.44 Q 13.44 57.44 9.24 56.44 Q 6.024 55.675 3.536 54.792 A 35.201 35.201 0 0 1 2.08 54.24 Q 1.2 53.84 0.6 53.08 A 2.759 2.759 0 0 1 0.042 51.77 A 3.703 3.703 0 0 1 0 51.2 A 3.478 3.478 0 0 1 0.799 48.979 A 4.402 4.402 0 0 1 0.88 48.88 A 2.851 2.851 0 0 1 2.968 47.847 A 3.806 3.806 0 0 1 3.2 47.84 Q 3.92 47.84 4.72 48.16 Q 6.961 49.057 9.899 49.709 A 47.565 47.565 0 0 0 10.32 49.8 Q 13.52 50.48 17.44 50.48 Q 20.96 50.48 24.36 49.72 A 14.842 14.842 0 0 0 27.293 48.753 A 11.414 11.414 0 0 0 30 47.04 A 6.244 6.244 0 0 0 32.082 43.358 A 9.303 9.303 0 0 0 32.24 41.6 Q 32.24 38.64 30.56 36.36 A 8.104 8.104 0 0 0 28.615 34.514 Q 27.155 33.505 25.04 32.8 A 20.678 20.678 0 0 0 22.088 32.075 Q 18.98 31.529 14.697 31.521 A 68.463 68.463 0 0 0 14.56 31.52 Z" />
  </g>
</svg>