<?xml version="1.0" encoding="UTF-8"?>
<svg xmlns="http://www.w3.org/2000/svg" xmlns:xlink="http://www.w3.org/1999/xlink" viewBox="0 0 50 50" version="1.1">
  <g id="surface1">
    <path style=" stroke:none;fill-rule:nonzero;fill:currentColor;fill-opacity:1;"
      d="M 32.550781 2.945313 C 31.769531 3 31.089844 3.507813 30.824219 4.246094 C 30.550781 4.984375 30.746094 5.8125 31.3125 6.355469 L 37.792969 12.898438 L 26.785156 12.898438 C 20.320313 12.898438 15.328125 14.53125 11.9375 17.578125 C 8.542969 20.625 6.945313 24.992188 6.945313 29.761719 C 6.945313 38.808594 10.167969 44.613281 10.167969 44.613281 C 10.699219 45.570313 11.910156 45.917969 12.867188 45.386719 C 13.824219 44.855469 14.171875 43.648438 13.640625 42.691406 C 13.640625 42.691406 10.914063 37.886719 10.914063 29.761719 C 10.914063 25.84375 12.125 22.777344 14.601563 20.554688 C 17.078125 18.328125 20.992188 16.863281 26.785156 16.863281 L 37.792969 16.863281 L 31.3125 23.40625 C 30.539063 24.191406 30.554688 25.457031 31.34375 26.226563 C 32.128906 27 33.394531 26.984375 34.164063 26.195313 L 43.960938 16.277344 L 45.355469 14.882813 L 43.960938 13.484375 L 34.164063 3.566406 C 33.792969 3.175781 33.277344 2.949219 32.738281 2.945313 C 32.675781 2.941406 32.613281 2.941406 32.550781 2.945313 Z " />
  </g>
</svg>