<?xml version="1.0" encoding="UTF-8"?>
<svg xmlns="http://www.w3.org/2000/svg" xmlns:xlink="http://www.w3.org/1999/xlink" viewBox="0 0 50 50" version="1.1">
  <g id="surface1">
    <path style=" stroke:none;fill-rule:nonzero;fill:currentColor;fill-opacity:1;"
      d="M 24.800781 1.984375 C 24.085938 1.972656 23.421875 2.347656 23.0625 2.96875 C 22.699219 3.585938 22.699219 4.351563 23.0625 4.96875 C 23.421875 5.589844 24.085938 5.964844 24.800781 5.953125 C 35.234375 5.953125 43.652344 14.371094 43.652344 24.800781 C 43.652344 35.234375 35.234375 43.652344 24.800781 43.652344 C 14.371094 43.652344 5.953125 35.234375 5.953125 24.800781 C 5.953125 19.367188 8.242188 14.492188 11.90625 11.054688 L 11.90625 14.882813 C 11.894531 15.597656 12.269531 16.261719 12.890625 16.621094 C 13.503906 16.984375 14.273438 16.984375 14.890625 16.621094 C 15.507813 16.261719 15.882813 15.597656 15.871094 14.882813 L 15.871094 3.96875 L 4.960938 3.96875 C 4.242188 3.957031 3.582031 4.332031 3.21875 4.953125 C 2.855469 5.570313 2.855469 6.335938 3.21875 6.953125 C 3.582031 7.570313 4.242188 7.949219 4.960938 7.9375 L 9.449219 7.9375 C 4.867188 12.113281 1.984375 18.128906 1.984375 24.800781 C 1.984375 37.378906 12.222656 47.617188 24.800781 47.617188 C 37.378906 47.617188 47.617188 37.378906 47.617188 24.800781 C 47.617188 12.222656 37.378906 1.984375 24.800781 1.984375 Z " />
  </g>
</svg>