<?xml version="1.0" encoding="UTF-8"?>
<svg xmlns="http://www.w3.org/2000/svg" xmlns:xlink="http://www.w3.org/1999/xlink" viewBox="0 0 64 64" version="1.1">
  <g id="surface1">
    <path style=" stroke:none;fill-rule:nonzero;fill:currentColor;fill-opacity:1;"
      d="M 32 6 C 17.664063 6 6 17.664063 6 32 C 6 46.335938 17.664063 58 32 58 C 46.335938 58 58 46.335938 58 32 C 58 17.664063 46.335938 6 32 6 Z M 32 10 C 44.171875 10 54 19.828125 54 32 C 54 44.171875 44.171875 54 32 54 C 19.828125 54 10 44.171875 10 32 C 10 19.828125 19.828125 10 32 10 Z M 28.4375 18.5625 L 25.5625 21.4375 L 36.125 32 L 25.5625 42.5625 L 28.4375 45.4375 L 40.4375 33.4375 L 41.8125 32 L 40.4375 30.5625 Z " />
  </g>
</svg>