<?xml version="1.0" encoding="UTF-8"?>
<svg xmlns="http://www.w3.org/2000/svg" xmlns:xlink="http://www.w3.org/1999/xlink" viewBox="0 0 64 64" version="1.1">
  <g id="surface1">
    <path style=" stroke:none;fill-rule:nonzero;fill:currentColor;fill-opacity:1;"
      d="M 26.375 6 L 26.0625 7.625 L 24.875 13.5625 C 22.96875 14.3125 21.25 15.367188 19.6875 16.625 L 13.875 14.625 L 12.3125 14.125 L 11.5 15.5625 L 7.5 22.4375 L 6.6875 23.875 L 7.875 24.9375 L 12.375 28.875 C 12.210938 29.898438 12 30.921875 12 32 C 12 33.078125 12.210938 34.101563 12.375 35.125 L 7.875 39.0625 L 6.6875 40.125 L 7.5 41.5625 L 11.5 48.4375 L 12.3125 49.875 L 13.875 49.375 L 19.6875 47.375 C 21.25 48.632813 22.96875 49.6875 24.875 50.4375 L 26.0625 56.375 L 26.375 58 L 37.625 58 L 37.9375 56.375 L 39.125 50.4375 C 41.03125 49.6875 42.75 48.632813 44.3125 47.375 L 50.125 49.375 L 51.6875 49.875 L 52.5 48.4375 L 56.5 41.5625 L 57.3125 40.125 L 56.125 39.0625 L 51.625 35.125 C 51.789063 34.101563 52 33.078125 52 32 C 52 30.921875 51.789063 29.898438 51.625 28.875 L 56.125 24.9375 L 57.3125 23.875 L 56.5 22.4375 L 52.5 15.5625 L 51.6875 14.125 L 50.125 14.625 L 44.3125 16.625 C 42.75 15.367188 41.03125 14.3125 39.125 13.5625 L 37.9375 7.625 L 37.625 6 Z M 29.625 10 L 34.375 10 L 35.375 15.1875 L 35.625 16.375 L 36.75 16.75 C 39.023438 17.460938 41.085938 18.664063 42.8125 20.25 L 43.6875 21.0625 L 44.8125 20.6875 L 49.875 18.9375 L 52.25 23 L 48.25 26.5625 L 47.3125 27.3125 L 47.625 28.5 C 47.882813 29.640625 48 30.804688 48 32 C 48 33.195313 47.882813 34.359375 47.625 35.5 L 47.375 36.6875 L 48.25 37.4375 L 52.25 41 L 49.875 45.0625 L 44.8125 43.3125 L 43.6875 42.9375 L 42.8125 43.75 C 41.085938 45.335938 39.023438 46.539063 36.75 47.25 L 35.625 47.625 L 35.375 48.8125 L 34.375 54 L 29.625 54 L 28.625 48.8125 L 28.375 47.625 L 27.25 47.25 C 24.976563 46.539063 22.914063 45.335938 21.1875 43.75 L 20.3125 42.9375 L 19.1875 43.3125 L 14.125 45.0625 L 11.75 41 L 15.75 37.4375 L 16.6875 36.6875 L 16.375 35.5 C 16.117188 34.359375 16 33.195313 16 32 C 16 30.804688 16.117188 29.640625 16.375 28.5 L 16.6875 27.3125 L 15.75 26.5625 L 11.75 23 L 14.125 18.9375 L 19.1875 20.6875 L 20.3125 21.0625 L 21.1875 20.25 C 22.914063 18.664063 24.976563 17.460938 27.25 16.75 L 28.375 16.375 L 28.625 15.1875 Z M 32 22 C 26.5 22 22 26.5 22 32 C 22 37.5 26.5 42 32 42 C 37.5 42 42 37.5 42 32 C 42 26.5 37.5 22 32 22 Z M 32 26 C 35.335938 26 38 28.664063 38 32 C 38 35.335938 35.335938 38 32 38 C 28.664063 38 26 35.335938 26 32 C 26 28.664063 28.664063 26 32 26 Z " />
  </g>
</svg>