<?xml version="1.0" encoding="UTF-8"?>
<svg xmlns="http://www.w3.org/2000/svg" xmlns:xlink="http://www.w3.org/1999/xlink" viewBox="0 0 26 26" version="1.1">
  <g id="surface1">
    <path style=" stroke:none;fill-rule:nonzero;fill:currentColor;fill-opacity:1;"
      d="M 12.804688 1.167969 C 6.378906 1.167969 1.167969 6.378906 1.167969 12.804688 C 1.167969 19.226563 6.378906 24.4375 12.804688 24.4375 C 19.226563 24.4375 24.4375 19.226563 24.4375 12.804688 C 24.4375 6.378906 19.226563 1.167969 12.804688 1.167969 Z M 12.75 19.910156 C 11.820313 19.910156 11.089844 19.175781 11.089844 18.25 C 11.089844 17.324219 11.820313 16.59375 12.75 16.59375 C 13.671875 16.59375 14.410156 17.324219 14.410156 18.25 C 14.410156 19.175781 13.675781 19.910156 12.75 19.910156 Z M 15.191406 12.390625 L 14.109375 13.328125 C 13.296875 14.046875 13.433594 14.394531 13.433594 14.835938 L 12.222656 14.835938 L 12.222656 14.390625 C 12.222656 12.257813 14.261719 11.886719 14.261719 8.734375 C 14.261719 7.519531 13.863281 6.96875 12.855469 6.96875 C 11.929688 6.96875 11.515625 7.421875 11.648438 8.511719 C 11.730469 9.203125 11.039063 9.476563 10.582031 9.476563 C 10.070313 9.476563 9.636719 8.964844 9.636719 8.269531 C 9.636719 7.097656 10.867188 5.867188 13.011719 5.867188 C 15.097656 5.867188 16.914063 6.808594 16.914063 9.078125 C 16.917969 10.484375 16.402344 11.332031 15.191406 12.390625 Z " />
  </g>
</svg>