<?xml version="1.0" encoding="UTF-8"?>
<svg xmlns="http://www.w3.org/2000/svg" xmlns:xlink="http://www.w3.org/1999/xlink" viewBox="0 0 52 52" version="1.1">
  <g id="surface1">
    <path style=" stroke:none;fill-rule:nonzero;fill:currentColor;fill-opacity:1;"
      d="M 25.605469 2.339844 C 12.757813 2.339844 2.339844 12.757813 2.339844 25.605469 C 2.339844 38.457031 12.757813 48.875 25.605469 48.875 C 38.457031 48.875 48.875 38.457031 48.875 25.605469 C 48.875 12.757813 38.457031 2.339844 25.605469 2.339844 Z M 30.453125 38.402344 C 29.253906 38.871094 28.300781 39.230469 27.582031 39.480469 C 26.867188 39.726563 26.042969 39.847656 25.097656 39.847656 C 23.652344 39.847656 22.519531 39.492188 21.710938 38.785156 C 20.914063 38.085938 20.511719 37.1875 20.511719 36.09375 C 20.511719 35.671875 20.542969 35.238281 20.605469 34.800781 C 20.660156 34.355469 20.757813 33.863281 20.890625 33.300781 L 22.390625 28.007813 C 22.519531 27.5 22.636719 27.023438 22.726563 26.566406 C 22.820313 26.113281 22.859375 25.699219 22.859375 25.320313 C 22.859375 24.652344 22.722656 24.175781 22.445313 23.914063 C 22.160156 23.644531 21.628906 23.511719 20.84375 23.511719 C 20.457031 23.511719 20.058594 23.574219 19.652344 23.691406 C 19.242188 23.8125 18.898438 23.929688 18.605469 24.035156 L 19.003906 22.40625 C 19.980469 22.003906 20.921875 21.667969 21.820313 21.382813 C 22.714844 21.097656 23.566406 20.949219 24.359375 20.949219 C 25.796875 20.949219 26.914063 21.304688 27.691406 21.996094 C 28.46875 22.691406 28.859375 23.597656 28.859375 24.707031 C 28.859375 24.9375 28.835938 25.34375 28.785156 25.921875 C 28.730469 26.5 28.628906 27.03125 28.484375 27.523438 L 26.992188 32.800781 C 26.867188 33.222656 26.761719 33.707031 26.660156 34.246094 C 26.566406 34.785156 26.523438 35.199219 26.523438 35.476563 C 26.523438 36.179688 26.675781 36.664063 26.992188 36.917969 C 27.296875 37.171875 27.84375 37.292969 28.621094 37.292969 C 28.984375 37.292969 29.390625 37.230469 29.851563 37.109375 C 30.308594 36.976563 30.636719 36.871094 30.847656 36.769531 Z M 30.183594 16.972656 C 29.492188 17.621094 28.652344 17.941406 27.675781 17.941406 C 26.699219 17.941406 25.851563 17.621094 25.152344 16.972656 C 24.453125 16.328125 24.105469 15.542969 24.105469 14.625 C 24.105469 13.710938 24.460938 12.917969 25.152344 12.265625 C 25.851563 11.609375 26.699219 11.289063 27.675781 11.289063 C 28.652344 11.289063 29.492188 11.609375 30.183594 12.265625 C 30.882813 12.917969 31.230469 13.710938 31.230469 14.625 C 31.230469 15.542969 30.882813 16.328125 30.183594 16.972656 Z " />
  </g>
</svg>